<svg xmlns="http://www.w3.org/2000/svg" width="118.111" height="18.16" viewBox="0 0 118.111 18.16">
  <path id="logo" d="M4.7,13.556q.375,0,.743-.1t.659-.311q.291-.206.468-.505t.176-.7q0-.475-.241-.845t-.632-.678q-.391-.308-.893-.581T3.959,9.289q-.521-.273-1.023-.573t-.892-.67q-.391-.37-.632-.825T1.171,6.174q0-.591.218-1.1T2.029,4.2q.421-.37,1.038-.58t1.413-.21q.72,0,1.287.156t1,.46q.429.3.728.748T7.975,5.8l-.874.4q-.153-.475-.391-.868t-.567-.674q-.33-.28-.763-.432T4.4,4.082q-.483,0-.843.136t-.6.358q-.241.222-.36.5t-.119.564q0,.4.245.743t.651.639q.406.3.923.58t1.054.569q.536.288,1.054.6t.924.682q.406.37.652.81t.245.985q0,.615-.23,1.156t-.69.941q-.46.4-1.142.633t-1.586.231q-.735,0-1.31-.165t-1.015-.476q-.44-.312-.754-.76T.987,11.785L1.9,11.4q.161.506.433.9t.632.674q.36.277.8.425T4.7,13.556ZM17.815,3.416l4.8,10.578-1.746,0-1.553-3.448-4.372,0-1.6,3.442h-.86L17.385,3.415ZM15.242,9.868l3.757,0L17.147,5.777Zm12.02-6.216h1.717v9.679l5.149.007v.672L27.262,14Zm11.642,0h1.722V14.018l-1.722,0Zm19.5,0-7.429,9.7,7.429.01v.673l-9.751-.013v-.258l7.209-9.439-7.209,0V3.657Zm6.486,5.409v4.984l-1.731,0V3.66h1.731V8.394l5.174,0V3.662H71.8v10.4l-1.734,0V9.072ZM81.923,3.429l4.866,10.653-1.771,0-1.575-3.473-4.434,0-1.628,3.467H76.51L81.486,3.429Zm-2.61,6.5,3.81,0L81.245,5.807ZM91.5,3.667h.976L99.273,11.3h.078V3.669h.767V14.344h-.407L92.355,5.86h-.062v8.229H91.5Zm20.634.517q-.941,0-1.737.334t-1.372.96q-.576.626-.9,1.511t-.321,1.98q0,1.1.349,1.988t.956,1.509q.608.623,1.431.959t1.765.337q.683,0,1.232-.183t.989-.531V9.385l-1.97,0V8.76l3.721,0v4.594q-.455.244-.919.432t-1,.314q-.538.125-1.181.191t-1.459.065q-.863,0-1.639-.2t-1.439-.549q-.662-.355-1.2-.848t-.905-1.091q-.372-.6-.576-1.284t-.2-1.425q0-.732.192-1.429t.552-1.314q.36-.618.878-1.129t1.168-.881q.651-.37,1.419-.574t1.631-.2q.824,0,1.526.225t1.279.6q.577.371,1.024.855t.769,1.013l-.754.5q-.659-1.269-1.464-1.856T112.137,4.184Z" fill="#31372b"/>
</svg>
